<mxfile host="app.diagrams.net" agent="Mozilla/5.0 (Windows NT 10.0; Win64; x64) AppleWebKit/537.36 (KHTML, like Gecko) Chrome/141.0.0.0 Safari/537.36 Edg/141.0.0.0" version="28.2.8">
  <diagram name="Страница — 1" id="W58U_pnAdaL_P4YoL4DK">
    <mxGraphModel dx="1418" dy="794" grid="1" gridSize="10" guides="1" tooltips="1" connect="1" arrows="1" fold="1" page="1" pageScale="1" pageWidth="827" pageHeight="1169" math="0" shadow="0">
      <root>
        <mxCell id="0" />
        <mxCell id="1" parent="0" />
        <mxCell id="Ky2khFeG3VrREPBK2f00-14" value="K" style="shape=parallelogram;perimeter=parallelogramPerimeter;whiteSpace=wrap;html=1;fixedSize=1;fontSize=16;" vertex="1" parent="1">
          <mxGeometry x="736" y="170" width="140" height="60" as="geometry" />
        </mxCell>
        <mxCell id="Ky2khFeG3VrREPBK2f00-15" value="" style="group;fontSize=16;" vertex="1" connectable="0" parent="1">
          <mxGeometry x="736" y="70" width="140" height="60" as="geometry" />
        </mxCell>
        <mxCell id="Ky2khFeG3VrREPBK2f00-16" value="&lt;span style=&quot;color: rgba(0, 0, 0, 0); font-family: monospace; text-align: start; text-wrap-mode: nowrap;&quot;&gt;А&lt;/span&gt;" style="strokeWidth=2;html=1;shape=mxgraph.flowchart.terminator;whiteSpace=wrap;fontSize=16;" vertex="1" parent="Ky2khFeG3VrREPBK2f00-15">
          <mxGeometry width="140" height="60" as="geometry" />
        </mxCell>
        <mxCell id="Ky2khFeG3VrREPBK2f00-17" value="begin" style="text;html=1;align=center;verticalAlign=middle;whiteSpace=wrap;rounded=0;fontSize=16;" vertex="1" parent="Ky2khFeG3VrREPBK2f00-15">
          <mxGeometry x="40" y="15" width="60" height="30" as="geometry" />
        </mxCell>
        <mxCell id="Ky2khFeG3VrREPBK2f00-18" style="edgeStyle=orthogonalEdgeStyle;rounded=0;orthogonalLoop=1;jettySize=auto;html=1;fontSize=16;" edge="1" parent="1" source="Ky2khFeG3VrREPBK2f00-16" target="Ky2khFeG3VrREPBK2f00-14">
          <mxGeometry relative="1" as="geometry" />
        </mxCell>
        <mxCell id="Ky2khFeG3VrREPBK2f00-19" style="edgeStyle=orthogonalEdgeStyle;rounded=0;orthogonalLoop=1;jettySize=auto;html=1;fontSize=16;" edge="1" parent="1" source="Ky2khFeG3VrREPBK2f00-21" target="Ky2khFeG3VrREPBK2f00-23">
          <mxGeometry relative="1" as="geometry" />
        </mxCell>
        <mxCell id="Ky2khFeG3VrREPBK2f00-20" style="edgeStyle=orthogonalEdgeStyle;rounded=0;orthogonalLoop=1;jettySize=auto;html=1;fontSize=16;" edge="1" parent="1" source="Ky2khFeG3VrREPBK2f00-21" target="Ky2khFeG3VrREPBK2f00-24">
          <mxGeometry relative="1" as="geometry" />
        </mxCell>
        <mxCell id="Ky2khFeG3VrREPBK2f00-21" value="1&amp;lt;=K&amp;lt;=365?" style="rhombus;whiteSpace=wrap;html=1;fontSize=16;" vertex="1" parent="1">
          <mxGeometry x="736" y="330" width="140" height="80" as="geometry" />
        </mxCell>
        <mxCell id="Ky2khFeG3VrREPBK2f00-22" style="edgeStyle=orthogonalEdgeStyle;rounded=0;orthogonalLoop=1;jettySize=auto;html=1;fontSize=16;" edge="1" parent="1" source="Ky2khFeG3VrREPBK2f00-23" target="Ky2khFeG3VrREPBK2f00-29">
          <mxGeometry relative="1" as="geometry">
            <Array as="points">
              <mxPoint x="636" y="560" />
              <mxPoint x="806" y="560" />
            </Array>
          </mxGeometry>
        </mxCell>
        <mxCell id="Ky2khFeG3VrREPBK2f00-23" value="Day=K%7" style="rounded=0;whiteSpace=wrap;html=1;fontSize=16;" vertex="1" parent="1">
          <mxGeometry x="566" y="460" width="140" height="60" as="geometry" />
        </mxCell>
        <mxCell id="Ky2khFeG3VrREPBK2f00-24" value="exit" style="rounded=0;whiteSpace=wrap;html=1;fontSize=16;" vertex="1" parent="1">
          <mxGeometry x="916" y="460" width="140" height="60" as="geometry" />
        </mxCell>
        <mxCell id="Ky2khFeG3VrREPBK2f00-25" value="Да" style="text;html=1;align=center;verticalAlign=middle;whiteSpace=wrap;rounded=0;" vertex="1" parent="1">
          <mxGeometry x="669" y="380" width="60" height="30" as="geometry" />
        </mxCell>
        <mxCell id="Ky2khFeG3VrREPBK2f00-26" value="Нет" style="text;html=1;align=center;verticalAlign=middle;whiteSpace=wrap;rounded=0;" vertex="1" parent="1">
          <mxGeometry x="899" y="380" width="60" height="30" as="geometry" />
        </mxCell>
        <mxCell id="Ky2khFeG3VrREPBK2f00-27" value="Истина" style="text;html=1;align=center;verticalAlign=middle;whiteSpace=wrap;rounded=0;" vertex="1" parent="1">
          <mxGeometry x="669" y="410" width="60" height="30" as="geometry" />
        </mxCell>
        <mxCell id="Ky2khFeG3VrREPBK2f00-28" value="Ложь" style="text;html=1;align=center;verticalAlign=middle;whiteSpace=wrap;rounded=0;" vertex="1" parent="1">
          <mxGeometry x="899" y="410" width="60" height="30" as="geometry" />
        </mxCell>
        <mxCell id="Ky2khFeG3VrREPBK2f00-29" value="day=0?" style="rhombus;whiteSpace=wrap;html=1;fontSize=16;" vertex="1" parent="1">
          <mxGeometry x="736" y="610" width="140" height="80" as="geometry" />
        </mxCell>
        <mxCell id="Ky2khFeG3VrREPBK2f00-30" style="edgeStyle=orthogonalEdgeStyle;rounded=0;orthogonalLoop=1;jettySize=auto;html=1;exitX=1;exitY=0.5;exitDx=0;exitDy=0;entryX=0.5;entryY=0;entryDx=0;entryDy=0;" edge="1" parent="1" source="Ky2khFeG3VrREPBK2f00-29" target="Ky2khFeG3VrREPBK2f00-31">
          <mxGeometry relative="1" as="geometry">
            <Array as="points">
              <mxPoint x="1013" y="650" />
              <mxPoint x="1013" y="730" />
            </Array>
            <mxPoint x="880" y="650" as="sourcePoint" />
            <mxPoint x="1013" y="720" as="targetPoint" />
          </mxGeometry>
        </mxCell>
        <mxCell id="Ky2khFeG3VrREPBK2f00-31" value="day=day" style="rounded=0;whiteSpace=wrap;html=1;fontSize=16;" vertex="1" parent="1">
          <mxGeometry x="939" y="730" width="140" height="60" as="geometry" />
        </mxCell>
        <mxCell id="Ky2khFeG3VrREPBK2f00-33" value="day" style="shape=document;whiteSpace=wrap;html=1;boundedLbl=1;fontSize=16;" vertex="1" parent="1">
          <mxGeometry x="736" y="980" width="140" height="80" as="geometry" />
        </mxCell>
        <mxCell id="Ky2khFeG3VrREPBK2f00-34" style="edgeStyle=orthogonalEdgeStyle;rounded=0;orthogonalLoop=1;jettySize=auto;html=1;fontSize=16;" edge="1" parent="1" source="Ky2khFeG3VrREPBK2f00-33" target="Ky2khFeG3VrREPBK2f00-35">
          <mxGeometry relative="1" as="geometry">
            <mxPoint x="806" y="1130" as="targetPoint" />
          </mxGeometry>
        </mxCell>
        <mxCell id="Ky2khFeG3VrREPBK2f00-35" value="&lt;span style=&quot;color: rgba(0, 0, 0, 0); font-family: monospace; text-align: start; text-wrap-mode: nowrap;&quot;&gt;А&lt;/span&gt;" style="strokeWidth=2;html=1;shape=mxgraph.flowchart.terminator;whiteSpace=wrap;fontSize=16;" vertex="1" parent="1">
          <mxGeometry x="736" y="1130" width="140" height="60" as="geometry" />
        </mxCell>
        <mxCell id="Ky2khFeG3VrREPBK2f00-36" value="end" style="text;html=1;align=center;verticalAlign=middle;whiteSpace=wrap;rounded=0;fontSize=16;" vertex="1" parent="1">
          <mxGeometry x="776" y="1145" width="60" height="30" as="geometry" />
        </mxCell>
        <mxCell id="Ky2khFeG3VrREPBK2f00-37" value="" style="endArrow=classic;html=1;rounded=0;entryX=0.5;entryY=0;entryDx=0;entryDy=0;exitX=0.5;exitY=1;exitDx=0;exitDy=0;" edge="1" parent="1" source="Ky2khFeG3VrREPBK2f00-14" target="Ky2khFeG3VrREPBK2f00-21">
          <mxGeometry width="50" height="50" relative="1" as="geometry">
            <mxPoint x="400" y="430" as="sourcePoint" />
            <mxPoint x="450" y="380" as="targetPoint" />
          </mxGeometry>
        </mxCell>
        <mxCell id="Ky2khFeG3VrREPBK2f00-38" value="" style="endArrow=classic;html=1;rounded=0;exitX=0;exitY=0.5;exitDx=0;exitDy=0;entryX=0.5;entryY=0;entryDx=0;entryDy=0;" edge="1" parent="1" source="Ky2khFeG3VrREPBK2f00-29" target="Ky2khFeG3VrREPBK2f00-44">
          <mxGeometry width="50" height="50" relative="1" as="geometry">
            <mxPoint x="729" y="650" as="sourcePoint" />
            <mxPoint x="573" y="720" as="targetPoint" />
            <Array as="points">
              <mxPoint x="573" y="650" />
            </Array>
          </mxGeometry>
        </mxCell>
        <mxCell id="Ky2khFeG3VrREPBK2f00-39" value="Да" style="text;html=1;align=center;verticalAlign=middle;whiteSpace=wrap;rounded=0;" vertex="1" parent="1">
          <mxGeometry x="640" y="650" width="60" height="30" as="geometry" />
        </mxCell>
        <mxCell id="Ky2khFeG3VrREPBK2f00-40" value="Истина" style="text;html=1;align=center;verticalAlign=middle;whiteSpace=wrap;rounded=0;" vertex="1" parent="1">
          <mxGeometry x="646" y="680" width="60" height="30" as="geometry" />
        </mxCell>
        <mxCell id="Ky2khFeG3VrREPBK2f00-42" value="Нет" style="text;html=1;align=center;verticalAlign=middle;whiteSpace=wrap;rounded=0;" vertex="1" parent="1">
          <mxGeometry x="890" y="650" width="60" height="30" as="geometry" />
        </mxCell>
        <mxCell id="Ky2khFeG3VrREPBK2f00-43" value="Ложь" style="text;html=1;align=center;verticalAlign=middle;whiteSpace=wrap;rounded=0;" vertex="1" parent="1">
          <mxGeometry x="890" y="680" width="60" height="30" as="geometry" />
        </mxCell>
        <mxCell id="Ky2khFeG3VrREPBK2f00-44" value="day=7" style="rounded=0;whiteSpace=wrap;html=1;fontSize=16;" vertex="1" parent="1">
          <mxGeometry x="506" y="730" width="140" height="60" as="geometry" />
        </mxCell>
        <mxCell id="Ky2khFeG3VrREPBK2f00-46" value="" style="endArrow=classic;html=1;rounded=0;exitX=0.379;exitY=1;exitDx=0;exitDy=0;exitPerimeter=0;" edge="1" parent="1" source="Ky2khFeG3VrREPBK2f00-44">
          <mxGeometry width="50" height="50" relative="1" as="geometry">
            <mxPoint x="588.99" y="840" as="sourcePoint" />
            <mxPoint x="809.01" y="970" as="targetPoint" />
            <Array as="points">
              <mxPoint x="559" y="840" />
              <mxPoint x="809.01" y="840" />
            </Array>
          </mxGeometry>
        </mxCell>
        <mxCell id="Ky2khFeG3VrREPBK2f00-47" value="" style="endArrow=classic;html=1;rounded=0;exitX=0.5;exitY=1;exitDx=0;exitDy=0;" edge="1" parent="1" source="Ky2khFeG3VrREPBK2f00-31">
          <mxGeometry width="50" height="50" relative="1" as="geometry">
            <mxPoint x="1029.5" y="840" as="sourcePoint" />
            <mxPoint x="810.5" y="970" as="targetPoint" />
            <Array as="points">
              <mxPoint x="1010" y="840" />
              <mxPoint x="810.5" y="840" />
            </Array>
          </mxGeometry>
        </mxCell>
      </root>
    </mxGraphModel>
  </diagram>
</mxfile>
